<svg width="32" height="32" viewBox="0 0 32 32" fill="none" xmlns="http://www.w3.org/2000/svg">
<path fill-rule="evenodd" clip-rule="evenodd" d="M29.3337 16.0001C29.3337 23.3639 23.3641 29.3334 16.0003 29.3334C8.63653 29.3334 2.66699 23.3639 2.66699 16.0001C2.66699 8.63628 8.63653 2.66675 16.0003 2.66675C23.3641 2.66675 29.3337 8.63628 29.3337 16.0001ZM11.9598 11.9596C12.3504 11.5691 12.9835 11.5691 13.374 11.9596L16.0003 14.5859L18.6265 11.9596C19.017 11.5691 19.6502 11.5691 20.0407 11.9596C20.4312 12.3502 20.4312 12.9833 20.0407 13.3739L17.4145 16.0001L20.0407 18.6263C20.4312 19.0168 20.4312 19.6499 20.0407 20.0405C19.6502 20.431 19.017 20.431 18.6265 20.0405L16.0003 17.4143L13.3741 20.0405C12.9835 20.431 12.3504 20.431 11.9599 20.0405C11.5693 19.65 11.5693 19.0168 11.9599 18.6263L14.5861 16.0001L11.9598 13.3738C11.5693 12.9833 11.5693 12.3501 11.9598 11.9596Z" fill="#E00000"/>
<path d="M11.9589 11.9594C12.3494 11.5689 12.9826 11.5689 13.3731 11.9594L15.9994 14.5856L18.6256 11.9594C19.0161 11.5689 19.6493 11.5689 20.0398 11.9594C20.4303 12.3499 20.4303 12.9831 20.0398 13.3736L17.4136 15.9999L20.0398 18.626C20.4303 19.0166 20.4303 19.6497 20.0398 20.0403C19.6492 20.4308 19.0161 20.4308 18.6255 20.0403L15.9994 17.4141L13.3732 20.0403C12.9826 20.4308 12.3495 20.4308 11.9589 20.0403C11.5684 19.6498 11.5684 19.0166 11.9589 18.6261L14.5851 15.9999L11.9589 13.3736C11.5684 12.9831 11.5684 12.3499 11.9589 11.9594Z" fill="white"/>
</svg>
