<svg width="21" height="20" viewBox="0 0 21 20" fill="none" xmlns="http://www.w3.org/2000/svg">
<path d="M5.49992 18.3334C5.04159 18.3334 4.64936 18.1704 4.32325 17.8442C3.99714 17.5181 3.83381 17.1256 3.83325 16.6667V3.33341C3.83325 2.87508 3.99659 2.48286 4.32325 2.15675C4.64992 1.83064 5.04214 1.6673 5.49992 1.66675H12.1666L17.1666 6.66675V16.6667C17.1666 17.1251 17.0035 17.5176 16.6774 17.8442C16.3513 18.1709 15.9588 18.334 15.4999 18.3334H5.49992ZM6.33325 15.8334H14.6666C14.611 15.1529 14.4027 14.5279 14.0416 13.9584C13.6805 13.389 13.2083 12.9376 12.6249 12.6042L13.4166 11.1876C13.4444 11.132 13.4513 11.0695 13.4374 11.0001C13.4235 10.9306 13.3819 10.882 13.3124 10.8542C13.2569 10.8265 13.1977 10.8195 13.1349 10.8334C13.0721 10.8473 13.0271 10.882 12.9999 10.9376L12.1874 12.3959C11.9096 12.2848 11.6319 12.1981 11.3541 12.1359C11.0763 12.0737 10.7916 12.0423 10.4999 12.0417C10.2083 12.0412 9.92353 12.0726 9.64575 12.1359C9.36797 12.1992 9.0902 12.2859 8.81242 12.3959L7.99992 10.9376C7.97214 10.8681 7.92714 10.8334 7.86492 10.8334C7.8027 10.8334 7.73659 10.8473 7.66659 10.8751L7.58325 11.1876L8.37492 12.6042C7.79158 12.9376 7.31936 13.389 6.95825 13.9584C6.59714 14.5279 6.38881 15.1529 6.33325 15.8334ZM8.62492 14.5834C8.51381 14.5834 8.41658 14.5417 8.33325 14.4584C8.24992 14.3751 8.20825 14.2779 8.20825 14.1667C8.20825 14.0556 8.24992 13.9584 8.33325 13.8751C8.41658 13.7917 8.51381 13.7501 8.62492 13.7501C8.73603 13.7501 8.83325 13.7917 8.91659 13.8751C8.99992 13.9584 9.04158 14.0556 9.04158 14.1667C9.04158 14.2779 8.99992 14.3751 8.91659 14.4584C8.83325 14.5417 8.73603 14.5834 8.62492 14.5834ZM12.3749 14.5834C12.2638 14.5834 12.1666 14.5417 12.0833 14.4584C11.9999 14.3751 11.9583 14.2779 11.9583 14.1667C11.9583 14.0556 11.9999 13.9584 12.0833 13.8751C12.1666 13.7917 12.2638 13.7501 12.3749 13.7501C12.486 13.7501 12.5833 13.7917 12.6666 13.8751C12.7499 13.9584 12.7916 14.0556 12.7916 14.1667C12.7916 14.2779 12.7499 14.3751 12.6666 14.4584C12.5833 14.5417 12.486 14.5834 12.3749 14.5834ZM11.3333 7.50008H15.4999L11.3333 3.33341V7.50008Z" fill="currentColor"/>
</svg>
