<svg width="20" height="20" viewBox="0 0 20 20" fill="none" xmlns="http://www.w3.org/2000/svg">
<path d="M10 14.4583C9.65833 14.4583 9.375 14.175 9.375 13.8333V9.66667C9.375 9.325 9.65833 9.04167 10 9.04167C10.3417 9.04167 10.625 9.325 10.625 9.66667V13.8333C10.625 14.175 10.3417 14.4583 10 14.4583Z" fill="currentColor"/>
<path fill-rule="evenodd" clip-rule="evenodd" d="M10 18.9583C5.05833 18.9583 1.04167 14.9417 1.04167 10C1.04167 5.05833 5.05833 1.04167 10 1.04167C14.9417 1.04167 18.9583 5.05833 18.9583 10C18.9583 14.9417 14.9417 18.9583 10 18.9583ZM10 2.29167C5.75 2.29167 2.29167 5.75 2.29167 10C2.29167 14.25 5.75 17.7083 10 17.7083C14.25 17.7083 17.7083 14.25 17.7083 10C17.7083 5.75 14.25 2.29167 10 2.29167Z" fill="currentColor"/>
<path d="M9.68317 7.53333C9.78317 7.575 9.8915 7.6 9.99984 7.6C10.1082 7.6 10.2165 7.575 10.3165 7.53333C10.4165 7.49167 10.5082 7.43333 10.5915 7.35833C10.6665 7.275 10.7248 7.19167 10.7665 7.08333C10.8082 6.98333 10.8332 6.875 10.8332 6.76667C10.8332 6.65833 10.8082 6.55 10.7665 6.45C10.7248 6.35 10.6665 6.25833 10.5915 6.175C10.5082 6.1 10.4165 6.04167 10.3165 6C10.1165 5.91667 9.88317 5.91667 9.68317 6C9.58317 6.04167 9.4915 6.1 9.40817 6.175C9.33317 6.25833 9.27484 6.35 9.23317 6.45C9.1915 6.55 9.1665 6.65833 9.1665 6.76667C9.1665 6.875 9.1915 6.98333 9.23317 7.08333C9.27484 7.19167 9.33317 7.275 9.40817 7.35833C9.4915 7.43333 9.58317 7.49167 9.68317 7.53333Z" fill="currentColor"/>
</svg>
