<svg width="21" height="20" viewBox="0 0 21 20" fill="none" xmlns="http://www.w3.org/2000/svg">
<path d="M8.26667 5.1168C8.26667 4.78346 7.99167 4.50846 7.65833 4.50846C4.625 4.50846 2.16667 6.97513 2.16667 10.0001C2.16667 13.0251 4.61667 15.4835 7.65 15.4835C10.6833 15.4835 13.1417 13.0168 13.1417 9.9918C13.1417 9.65846 12.8667 9.38346 12.5333 9.38346C12.2 9.38346 11.925 9.65846 11.925 9.9918C11.925 12.3418 10.0083 14.2585 7.65833 14.2585C5.30833 14.2585 3.39167 12.3418 3.39167 9.9918C3.39167 7.6418 5.30833 5.72513 7.65833 5.72513C7.99167 5.72513 8.26667 5.45013 8.26667 5.1168Z" fill="currentColor"/>
<path d="M12.7318 14.8849C12.7318 15.2182 13.0068 15.4932 13.3401 15.4932C16.3734 15.4932 18.8318 13.0266 18.8318 10.0016C18.8318 6.97656 16.3818 4.51823 13.3484 4.51823C10.3151 4.51823 7.85677 6.9849 7.85677 10.0099C7.85677 10.3432 8.13177 10.6182 8.4651 10.6182C8.79844 10.6182 9.07344 10.3432 9.07344 10.0099C9.07344 7.6599 10.9901 5.74323 13.3401 5.74323C15.6901 5.74323 17.6068 7.6599 17.6068 10.0099C17.6068 12.3599 15.6901 14.2766 13.3401 14.2766C13.0068 14.2766 12.7318 14.5516 12.7318 14.8849Z" fill="currentColor"/>
</svg>
