<svg width="16" height="16" viewBox="0 0 16 16" fill="none" xmlns="http://www.w3.org/2000/svg">
<path fill-rule="evenodd" clip-rule="evenodd" d="M3.33333 6C3.33333 3.42 5.42 1.33333 8 1.33333C10.58 1.33333 12.6667 3.42 12.6667 6C12.6667 6.96667 12.38 7.85333 11.8867 8.59333C11.1667 9.66 10.0267 10.4133 8.7 10.6067C8.47333 10.6467 8.24 10.6667 8 10.6667C7.76 10.6667 7.52667 10.6467 7.3 10.6067C5.97333 10.4133 4.83333 9.66 4.11333 8.59333C3.62 7.85333 3.33333 6.96667 3.33333 6ZM9.48667 6.40667L10.04 5.85333C10.3667 5.52667 10.26 5.2 9.81333 5.12667L9.1 5.00667C8.97333 4.98667 8.83333 4.88 8.78 4.77333L8.38667 3.98667C8.17333 3.56 7.82667 3.56 7.61333 3.98667L7.22 4.77333C7.16667 4.88 7.02667 4.98667 6.90667 5.00667L6.19333 5.12667C5.74 5.2 5.63333 5.52667 5.96 5.85333L6.52667 6.40667C6.62 6.5 6.66667 6.68667 6.64 6.81333L6.48 7.5C6.35333 8.04 6.64 8.24667 7.12 7.96667L7.78667 7.57333C7.90667 7.5 8.10667 7.5 8.22667 7.57333L8.89333 7.96667C9.37333 8.25333 9.66 8.04 9.53333 7.5L9.37333 6.81333C9.34 6.68 9.39333 6.5 9.48667 6.40667Z" fill="currentColor"/>
<path d="M1.79946 12.3134L2.89946 12.5734C3.14612 12.6334 3.33946 12.8201 3.39279 13.0667L3.62612 14.0467C3.75279 14.5801 4.43279 14.7467 4.78612 14.3267L6.77946 12.0334C6.93946 11.8467 6.85279 11.5534 6.61279 11.4934C5.43279 11.2067 4.37279 10.5467 3.59279 9.60674C3.46612 9.45341 3.23946 9.43341 3.09946 9.57341L1.61946 11.0534C1.11279 11.5601 1.29279 12.1934 1.79946 12.3134Z" fill="currentColor"/>
<path d="M14.1655 12.3134L13.0655 12.5734C12.8189 12.6334 12.6255 12.8201 12.5722 13.0667L12.3389 14.0467C12.2122 14.5801 11.5322 14.7467 11.1789 14.3267L9.18552 12.0334C9.02552 11.8467 9.11219 11.5534 9.35219 11.4934C10.5322 11.2067 11.5922 10.5467 12.3722 9.60674C12.4989 9.45341 12.7255 9.43341 12.8655 9.57341L14.3455 11.0534C14.8522 11.5601 14.6722 12.1934 14.1655 12.3134Z" fill="currentColor"/>
</svg>
