<svg width="24" height="24" viewBox="0 0 24 24" fill="none" xmlns="http://www.w3.org/2000/svg">
<path d="M4.25 6.75C4.25 4.13 6.38 2 9 2C11.62 2 13.75 4.13 13.75 6.75C13.74 9.32 11.73 11.4 9.17 11.49H9.1C9.04 11.48 8.96 11.48 8.88 11.49C6.26 11.4 4.25 9.32 4.25 6.75Z" fill="currentColor" fill-opacity="0.2"/>
<path d="M3.93094 14.1489C6.74094 12.2889 11.2909 12.2889 14.0809 14.1489C15.3409 14.9889 16.0309 16.1289 16.0409 17.3589C16.0409 18.5989 15.3409 19.7389 14.0809 20.5889C12.6809 21.5289 10.8409 21.9989 9.00094 21.9989C7.16094 21.9989 5.32094 21.5289 3.92094 20.5889C2.66094 19.7489 1.96094 18.6089 1.96094 17.3789C1.96094 16.1489 2.66094 14.9989 3.93094 14.1489Z" fill="currentColor" fill-opacity="0.2"/>
<path d="M19.9894 7.33815C20.1494 9.27815 18.7694 10.9781 16.8594 11.2081H16.8094C16.7494 11.2081 16.6894 11.2081 16.6394 11.2281C15.6694 11.2781 14.7794 10.9681 14.1094 10.3981C15.1394 9.47815 15.7294 8.09815 15.6094 6.59815C15.5394 5.78815 15.2594 5.04815 14.8394 4.41815C15.2194 4.22815 15.6594 4.10815 16.1094 4.06815C18.0694 3.89815 19.8194 5.35815 19.9894 7.33815Z" fill="currentColor" fill-opacity="0.2"/>
<path d="M20.2483 18.9704C21.2883 18.4004 21.9083 17.5604 21.9883 16.5904C22.0783 15.6304 21.6083 14.7004 20.6883 13.9604C18.9783 12.5804 16.1983 12.1504 13.9883 12.7904C14.8383 13.1004 15.6183 13.5204 16.2883 14.0504C17.4683 15.0004 18.0583 16.1904 17.9583 17.4304C17.8783 18.2904 17.4583 19.1004 16.7383 19.7504C17.9883 19.7804 19.2483 19.5204 20.2483 18.9704Z" fill="currentColor" fill-opacity="0.2"/>
</svg>
