<svg width="20" height="20" viewBox="0 0 20 20" fill="none" xmlns="http://www.w3.org/2000/svg">
<path d="M13.9305 4.04364C13.9234 4.03448 13.916 4.02548 13.9083 4.01664L11.5 1.24997C11.275 0.991637 10.875 0.966637 10.6166 1.19164C10.3583 1.41664 10.3333 1.81664 10.5583 2.07497L11.7243 3.41444C11.1619 3.30397 10.5864 3.24992 10.0001 3.24992C5.66673 3.24992 2.15007 6.78325 2.15007 11.1083C2.15007 15.4333 5.66673 18.9583 10.0001 18.9583C14.3334 18.9583 17.8501 15.4333 17.8584 11.1083C17.8584 9.54159 17.4001 8.03325 16.5334 6.74159C16.3417 6.44992 15.9501 6.37492 15.6667 6.56659C15.3751 6.75825 15.3001 7.14992 15.4917 7.43325C16.2167 8.51658 16.6001 9.78325 16.6001 11.0999C16.6001 14.7416 13.6417 17.6999 10.0001 17.6999C6.3584 17.6999 3.40007 14.7416 3.40007 11.0999C3.40007 7.45825 6.3584 4.49992 10.0001 4.49992C10.663 4.49992 11.3135 4.58716 11.9354 4.75087L10.2585 5.97496C9.98351 6.1833 9.92518 6.57496 10.1252 6.84996C10.2502 7.01663 10.4418 7.1083 10.6335 7.1083C10.7668 7.1083 10.8918 7.07496 11.0002 6.99163L13.7414 4.98246C13.7806 4.96014 13.8172 4.93272 13.85 4.89997C13.9409 4.8208 14.0029 4.71997 14.0353 4.61127C14.0925 4.42788 14.0661 4.22233 13.9418 4.0583L13.9335 4.04758L13.9305 4.04364Z" fill="currentColor"/>
</svg>
