<svg width="16" height="16" viewBox="0 0 16 16" fill="none" xmlns="http://www.w3.org/2000/svg">
<path fill-rule="evenodd" clip-rule="evenodd" d="M1.33333 5.20667C1.33333 2.78 2.78 1.33333 5.20667 1.33333H10.7933C13.22 1.33333 14.6667 2.78 14.66 5.20667V10.7933C14.66 13.22 13.2133 14.6667 10.7867 14.6667H5.20667C2.78 14.6667 1.33333 13.22 1.33333 10.7867V5.20667ZM4.16667 8.55333C4.16667 10.6667 5.88667 12.3867 8 12.3867C10.1133 12.3867 11.8333 10.6667 11.8333 8.55333C11.8333 7.79333 11.6067 7.06 11.1867 6.42667C11.0333 6.19333 10.7267 6.13333 10.4933 6.28667C10.26 6.44 10.2 6.75333 10.3533 6.98C10.66 7.44667 10.8267 7.99333 10.8267 8.55333C10.8267 10.1133 9.55333 11.3867 7.99333 11.3867C6.43333 11.3867 5.16 10.1133 5.16 8.55333C5.16 7.06 6.32 5.83333 7.78667 5.72667L7.51333 5.92667C7.29333 6.09333 7.24667 6.40667 7.40667 6.62667C7.57333 6.84667 7.88 6.89333 8.10667 6.73333L9.4 5.78667C9.4 5.78 9.40667 5.78 9.40667 5.78C9.44667 5.75333 9.48667 5.72 9.51333 5.68C9.51667 5.67333 9.52167 5.66667 9.52667 5.66C9.53167 5.65333 9.53667 5.64667 9.54 5.64C9.56667 5.58667 9.58667 5.53333 9.6 5.48C9.61333 5.42 9.62 5.35333 9.60667 5.29333L9.58667 5.21333C9.57333 5.16667 9.54667 5.12 9.52 5.08C9.51333 5.07333 9.50833 5.06667 9.50333 5.06C9.5024 5.05875 9.50146 5.0575 9.50051 5.05625C9.4964 5.05083 9.49208 5.04542 9.48667 5.04L8.38 3.77333C8.2 3.56667 7.88 3.54667 7.67333 3.72667C7.46667 3.90667 7.44667 4.22667 7.62667 4.43333L7.87333 4.72C5.82 4.79333 4.16667 6.48 4.16667 8.55333Z" fill="currentColor"/>
</svg>
