<svg width="20" height="20" viewBox="0 0 20 20" fill="none" xmlns="http://www.w3.org/2000/svg">
<path d="M13.3333 5C13.3333 5.73333 12.7334 6.33334 12 6.33334H7.99998C7.26665 6.33334 6.66667 5.73333 6.66667 5C6.66667 3.15833 8.15833 1.66667 10 1.66667C11.8417 1.66667 13.3333 3.15833 13.3333 5Z" fill="currentColor"/>
<path d="M12.5 7.5C13.4167 7.5 14.1667 8.25 14.1667 9.16667V13.3333C14.1667 14.25 13.4167 15 12.5 15V17.5C12.5 17.9583 12.125 18.3333 11.6667 18.3333C11.2083 18.3333 10.8333 17.9583 10.8333 17.5V15H9.16667V17.5C9.16667 17.9583 8.79167 18.3333 8.33333 18.3333C7.875 18.3333 7.5 17.9583 7.5 17.5V15C6.58333 15 5.83333 14.25 5.83333 13.3333V9.16667C5.83333 8.25 6.58333 7.5 7.5 7.5H12.5Z" fill="currentColor"/>
<path d="M3.33333 13.3333C3.79167 13.3333 4.16667 12.9583 4.16667 12.5V9.16667C4.16667 8.70833 3.79167 8.33333 3.33333 8.33333C2.875 8.33333 2.5 8.70833 2.5 9.16667V12.5C2.5 12.9583 2.875 13.3333 3.33333 13.3333Z" fill="currentColor"/>
<path d="M16.6667 8.33333C17.125 8.33333 17.5 8.70833 17.5 9.16667V12.5C17.5 12.9583 17.125 13.3333 16.6667 13.3333C16.2083 13.3333 15.8333 12.9583 15.8333 12.5V9.16667C15.8333 8.70833 16.2083 8.33333 16.6667 8.33333Z" fill="currentColor"/>
</svg>
