<svg width="20" height="20" viewBox="0 0 20 20" fill="none" xmlns="http://www.w3.org/2000/svg">
<path d="M12.467 4.12501C12.9587 3.49168 13.3337 2.58333 13.2004 1.66667C12.392 1.725 11.4504 2.24166 10.892 2.90833C10.392 3.51666 9.98369 4.425 10.142 5.30833C11.0254 5.34166 11.942 4.80834 12.467 4.12501Z" fill="currentColor"/>
<path d="M16.9667 13.9917C16.5917 14.8333 16.4084 15.2167 15.9167 15.9667C15.2334 17.0167 14.2667 18.3167 13.0584 18.3333C12.5803 18.3414 12.2677 18.1998 11.929 18.0465L11.9001 18.0333L11.8561 18.0136C11.4602 17.8354 11.0306 17.642 10.2834 17.65C9.51217 17.65 9.07105 17.8481 8.66438 18.0307L8.65839 18.0333L8.63003 18.0459C8.28275 18.1995 7.96184 18.3414 7.47506 18.3333C6.28339 18.3167 5.36672 17.1417 4.68339 16.0917C2.77506 13.1583 2.56672 9.725 3.75006 7.89167C4.59172 6.59167 5.91672 5.83333 7.15839 5.83333C7.82505 5.83333 8.35839 6.02501 8.86672 6.20834L8.87125 6.20996C9.33625 6.37603 9.77667 6.53333 10.2751 6.53333C10.7417 6.53333 11.1167 6.39168 11.5334 6.23334C12.0251 6.04168 12.5751 5.83333 13.3751 5.83333C14.4834 5.83333 15.6584 6.44166 16.4917 7.49166C13.7584 8.99999 14.2001 12.9417 16.9667 13.9917Z" fill="currentColor"/>
</svg>
