<svg width="20" height="20" viewBox="0 0 20 20" fill="none" xmlns="http://www.w3.org/2000/svg">
<path d="M8.32542 14.5001C8.45042 14.6251 8.60876 14.6834 8.76709 14.6834C8.92542 14.6834 9.09209 14.6251 9.20876 14.5001C9.45042 14.2584 9.45042 13.8584 9.20876 13.6168L6.21699 10.625H14.875C15.2167 10.625 15.5 10.3417 15.5 10C15.5 9.65833 15.2167 9.375 14.875 9.375H6.21719L9.20876 6.38343C9.45042 6.14176 9.45042 5.74176 9.20876 5.5001C8.96709 5.25843 8.56709 5.25843 8.32542 5.5001L4.26709 9.55843C4.02542 9.8001 4.02542 10.2001 4.26709 10.4418L8.32542 14.5001Z" fill="currentColor"/>
</svg>
