<svg width="20" height="20" viewBox="0 0 20 20" fill="none" xmlns="http://www.w3.org/2000/svg">
<path d="M10.2918 14.5001C10.4168 14.6251 10.5751 14.6834 10.7334 14.6834C10.8918 14.6834 11.0501 14.6251 11.1751 14.5001L15.2334 10.4418C15.4751 10.2001 15.4751 9.8001 15.2334 9.55843L11.1751 5.5001C10.9334 5.25843 10.5334 5.25843 10.2918 5.5001C10.0501 5.74176 10.0501 6.14176 10.2918 6.38343L13.2833 9.375H4.625C4.28333 9.375 4 9.65833 4 10C4 10.3417 4.28333 10.625 4.625 10.625H13.2835L10.2918 13.6168C10.0501 13.8584 10.0501 14.2584 10.2918 14.5001Z" fill="currentColor"/>
</svg>
