<svg width="20" height="20" viewBox="0 0 20 20" fill="none" xmlns="http://www.w3.org/2000/svg">
<path fill-rule="evenodd" clip-rule="evenodd" d="M15.0921 8.38328C15.3754 8.47495 15.6671 8.52495 15.9421 8.52495C16.4004 8.52495 16.8421 8.39995 17.2004 8.12495C17.7671 7.70828 18.1004 7.00828 18.1004 6.19995V5.22495C18.1004 4.01662 17.2004 2.76662 16.0504 2.38328L12.3671 1.15828C11.6004 0.908285 10.8337 0.991618 10.2587 1.40828C9.71965 1.80466 9.39174 2.45744 9.36108 3.21598C9.35366 3.25405 9.34977 3.29329 9.34977 3.33333V12.1153C8.64131 11.4497 7.68831 11.0417 6.64144 11.0417C4.45811 11.0417 2.68311 12.8167 2.68311 15C2.68311 17.1833 4.45811 18.9583 6.64144 18.9583C8.82477 18.9583 10.5998 17.1833 10.5998 15V6.71978C10.8468 6.91103 11.1199 7.062 11.4087 7.15828L15.0921 8.38328ZM10.9921 2.42495C11.1337 2.31662 11.3171 2.26662 11.5171 2.26662C11.6587 2.26662 11.8171 2.29162 11.9754 2.34995L15.6587 3.57495C16.2921 3.79162 16.8504 4.56662 16.8504 5.23328V6.20828C16.8504 6.61662 16.7171 6.94162 16.4671 7.11662C16.2254 7.29162 15.8671 7.32495 15.4837 7.19162L11.8004 5.96662C11.1671 5.74995 10.6087 4.97495 10.6087 4.30828V3.33328C10.6087 2.92495 10.7421 2.59995 10.9921 2.42495ZM6.64144 12.2917C8.14144 12.2917 9.34977 13.5083 9.34977 15C9.34977 16.4917 8.13311 17.7083 6.64144 17.7083C5.14977 17.7083 3.93311 16.4917 3.93311 15C3.93311 13.5083 5.14977 12.2917 6.64144 12.2917Z" fill="currentColor"/>
</svg>
