<svg width="20" height="20" viewBox="0 0 20 20" fill="none" xmlns="http://www.w3.org/2000/svg">
<path d="M5.85417 15.1875L9.9375 11.1042L14.0208 15.1875C14.1736 15.3403 14.3681 15.4167 14.6042 15.4167C14.8403 15.4167 15.0347 15.3403 15.1875 15.1875C15.3403 15.0347 15.4167 14.8403 15.4167 14.6042C15.4167 14.3681 15.3403 14.1736 15.1875 14.0208L11.1042 9.9375L15.1875 5.85416C15.3403 5.70139 15.4167 5.50694 15.4167 5.27083C15.4167 5.03472 15.3403 4.84028 15.1875 4.6875C15.0347 4.53472 14.8403 4.45833 14.6042 4.45833C14.3681 4.45833 14.1736 4.53472 14.0208 4.6875L9.9375 8.77083L5.85417 4.6875C5.70139 4.53472 5.50694 4.45833 5.27083 4.45833C5.03472 4.45833 4.84028 4.53472 4.6875 4.6875C4.53472 4.84028 4.45833 5.03472 4.45833 5.27083C4.45833 5.50694 4.53472 5.70139 4.6875 5.85416L8.77083 9.9375L4.6875 14.0208C4.53472 14.1736 4.45833 14.3681 4.45833 14.6042C4.45833 14.8403 4.53472 15.0347 4.6875 15.1875C4.84028 15.3403 5.03472 15.4167 5.27083 15.4167C5.50694 15.4167 5.70139 15.3403 5.85417 15.1875Z" fill="currentColor"/>
</svg>
