<svg width="20" height="20" viewBox="0 0 20 20" fill="none" xmlns="http://www.w3.org/2000/svg">
<path fill-rule="evenodd" clip-rule="evenodd" d="M13.6252 6.98255L16.9585 4.59922C17.6169 4.12422 18.5002 4.78255 18.2168 5.55755L14.7502 15.2659C14.6335 15.5909 14.3168 15.8159 13.9668 15.8159H6.02518C5.67518 15.8159 5.35852 15.5992 5.24185 15.2659L1.77518 5.55755C1.50018 4.78255 2.38352 4.12422 3.05018 4.59089L6.38352 6.97422C6.82518 7.29922 7.45018 7.10755 7.64185 6.59089L9.22518 2.39922C9.49185 1.67422 10.5168 1.67422 10.7835 2.39922L12.3585 6.59922C12.5502 7.10755 13.1835 7.29922 13.6252 6.98255ZM7.29185 11.6659C7.29185 12.0076 7.57518 12.2909 7.91685 12.2909H12.0835C12.4252 12.2909 12.7085 12.0076 12.7085 11.6659C12.7085 11.3242 12.4252 11.0409 12.0835 11.0409H7.91685C7.57518 11.0409 7.29185 11.3242 7.29185 11.6659Z" fill="#DEC905"/>
<path d="M5.20833 17.7083C5.20833 18.05 5.49167 18.3333 5.83333 18.3333H14.1667C14.5083 18.3333 14.7917 18.05 14.7917 17.7083C14.7917 17.3667 14.5083 17.0833 14.1667 17.0833H5.83333C5.49167 17.0833 5.20833 17.3667 5.20833 17.7083Z" fill="#DEC905"/>
</svg>
