<svg width="24" height="24" viewBox="0 0 24 24" fill="none" xmlns="http://www.w3.org/2000/svg">
<path d="M9.37473 20.4011C9.40662 20.4295 9.44691 20.4467 9.48948 20.4501C9.53205 20.4535 9.57456 20.4429 9.61055 20.4199C9.64655 20.3969 9.67405 20.3628 9.68889 20.3228C9.70372 20.2827 9.70507 20.2389 9.69273 20.1981L7.17273 11.5596C7.15001 11.4809 7.10368 11.4111 7.04002 11.3596C6.97635 11.3081 6.89841 11.2774 6.81673 11.2716C6.40873 11.2416 6.0014 11.2083 5.59473 11.1716L2.22473 10.8646C2.1891 10.8611 2.1532 10.8674 2.12085 10.8827C2.0885 10.898 2.0609 10.9218 2.041 10.9516C2.02109 10.9813 2.00963 11.0159 2.00782 11.0517C2.00601 11.0874 2.01393 11.123 2.03073 11.1546C3.85373 14.5648 6.47873 17.8149 9.37473 20.4011ZM11.8467 22.2272C11.8667 22.2972 11.9267 22.3492 11.9997 22.3492C12.0351 22.3486 12.0694 22.3364 12.0971 22.3143C12.1247 22.2922 12.1443 22.2616 12.1527 22.2272L15.2367 11.6536C15.2459 11.6229 15.2476 11.5905 15.2416 11.559C15.2356 11.5275 15.2221 11.4979 15.2023 11.4727C15.1825 11.4476 15.157 11.4275 15.1278 11.4142C15.0986 11.401 15.0667 11.3949 15.0347 11.3966C13.0123 11.4831 10.9871 11.4831 8.96473 11.3966C8.93285 11.395 8.90104 11.401 8.87198 11.4142C8.84291 11.4274 8.81742 11.4474 8.79765 11.4725C8.77787 11.4975 8.76439 11.527 8.75831 11.5583C8.75224 11.5896 8.75375 11.622 8.76273 11.6526L11.8467 22.2272ZM14.3067 20.1981C14.2507 20.3881 14.4767 20.5331 14.6247 20.4011C17.5207 17.8139 20.1457 14.5648 21.9687 11.1546C21.9855 11.1231 21.9934 11.0876 21.9916 11.0519C21.9898 11.0163 21.9784 10.9818 21.9587 10.952C21.9389 10.9223 21.9115 10.8985 21.8792 10.8831C21.847 10.8677 21.8113 10.8613 21.7757 10.8646L18.4057 11.1716C17.9977 11.2083 17.5901 11.2416 17.1827 11.2716C17.101 11.2774 17.0231 11.3081 16.9594 11.3596C16.8958 11.4111 16.8495 11.4809 16.8267 11.5596L14.3067 20.1981ZM21.8007 9.35649C21.8356 9.35343 21.8691 9.34127 21.8978 9.32123C21.9265 9.30118 21.9494 9.27396 21.9643 9.24227C21.9791 9.21059 21.9855 9.17555 21.9825 9.14067C21.9796 9.10578 21.9676 9.07227 21.9477 9.04348L18.7097 4.34823C18.5717 4.14827 18.3872 3.98482 18.1721 3.87194C17.957 3.75906 17.7177 3.70012 17.4747 3.7002H14.9847C14.9519 3.7002 14.9196 3.70828 14.8906 3.72374C14.8616 3.7392 14.8369 3.76156 14.8186 3.78884C14.8003 3.81613 14.789 3.84749 14.7857 3.88017C14.7824 3.91285 14.7872 3.94583 14.7997 3.97621L17.0567 9.4995C17.0888 9.57763 17.1448 9.6436 17.2166 9.68797C17.2885 9.73235 17.3725 9.75284 17.4567 9.74651C17.7274 9.72585 17.9984 9.70251 18.2697 9.67651L21.8007 9.35649ZM13.1647 3.94621C13.1343 3.87322 13.0829 3.81089 13.017 3.7671C12.9512 3.72331 12.8738 3.70003 12.7947 3.7002H11.2047C11.1256 3.70003 11.0483 3.72331 10.9824 3.7671C10.9166 3.81089 10.8652 3.87322 10.8347 3.94621L8.47673 9.60451C8.46452 9.63412 8.4596 9.66622 8.46238 9.69813C8.46516 9.73004 8.47557 9.76081 8.49272 9.78786C8.50987 9.81491 8.53326 9.83744 8.56093 9.85357C8.5886 9.86969 8.61974 9.87894 8.65173 9.88052C10.8817 9.98853 13.1177 9.98853 15.3487 9.88052C15.3806 9.87878 15.4117 9.86943 15.4392 9.85324C15.4667 9.83705 15.49 9.8145 15.507 9.78747C15.5241 9.76044 15.5344 9.72973 15.5371 9.6979C15.5399 9.66606 15.5349 9.63404 15.5227 9.60451L13.1647 3.94621ZM9.19973 3.97621C9.21221 3.94583 9.21702 3.91285 9.21373 3.88017C9.21044 3.84749 9.19915 3.81613 9.18086 3.78884C9.16258 3.76156 9.13786 3.7392 9.10888 3.72374C9.07991 3.70828 9.04757 3.7002 9.01473 3.7002H6.52473C6.28179 3.70012 6.04247 3.75906 5.82734 3.87194C5.61221 3.98482 5.42772 4.14827 5.28973 4.34823L2.05173 9.04348C2.03182 9.07227 2.01981 9.10578 2.01691 9.14067C2.01401 9.17555 2.02031 9.21059 2.03519 9.24227C2.05007 9.27396 2.07301 9.30118 2.10171 9.32123C2.1304 9.34127 2.16386 9.35343 2.19873 9.35649L5.72973 9.67651C6.0004 9.70251 6.2714 9.72585 6.54273 9.74651C6.62694 9.75284 6.71099 9.73235 6.78285 9.68797C6.8547 9.6436 6.91067 9.57763 6.94273 9.4995L9.19973 3.97621Z" fill="currentColor"/>
</svg>
