<svg width="161" height="160" viewBox="0 0 161 160" fill="none" xmlns="http://www.w3.org/2000/svg">
<g clip-path="url(#clip0_263_3703)">
<path d="M160.334 147.749C164.193 140.113 153.164 101.928 76.6921 101.928C21.4946 101.928 -3.83954 133.183 1.76134 149.022" fill="#F4F1EA"/>
<mask id="mask0_263_3703" style="mask-type:luminance" maskUnits="userSpaceOnUse" x="1" y="101" width="160" height="49">
<path d="M160.334 147.749C164.193 140.113 153.164 101.928 76.6921 101.928C21.4946 101.928 -3.83954 133.183 1.76134 149.022" fill="white"/>
</mask>
<g mask="url(#mask0_263_3703)">
<ellipse opacity="0.671968" cx="64.8975" cy="123.342" rx="4.20561" ry="2.33601" fill="url(#paint0_linear_263_3703)"/>
<ellipse opacity="0.671968" cx="65.2056" cy="123.335" rx="4.20561" ry="2.33601" fill="url(#paint1_linear_263_3703)"/>
<ellipse opacity="0.671968" cx="136" cy="135.499" rx="3" ry="1.5" fill="url(#paint2_linear_263_3703)"/>
<ellipse opacity="0.671968" cx="86" cy="142.499" rx="3" ry="1.5" fill="url(#paint3_linear_263_3703)"/>
<ellipse opacity="0.671968" cx="27" cy="137.999" rx="5" ry="3" fill="url(#paint4_linear_263_3703)"/>
<ellipse opacity="0.671968" cx="107.823" cy="119.777" rx="6.63551" ry="3.64417" fill="url(#paint5_linear_263_3703)"/>
<ellipse opacity="0.729957" cx="32.3084" cy="110.058" rx="6.63551" ry="3.64417" fill="#F4F1EA"/>
</g>
<path d="M83.4406 94.0536C83.4406 94.0536 82.7608 93.9928 82.578 94.4119C82.3952 94.8311 83.341 96.5386 83.8131 96.9945C84.2852 97.4504 85.2929 97.0337 84.8052 95.9671C84.3175 94.9004 83.4406 94.0536 83.4406 94.0536Z" fill="#5F7293"/>
<path d="M89.8195 91.7386C89.8195 91.7386 89.7349 91.0613 90.1475 90.864C90.56 90.6667 92.2995 91.5523 92.7716 92.0081C93.2436 92.464 92.8624 93.4857 91.7794 93.0356C90.6964 92.5854 89.8195 91.7386 89.8195 91.7386Z" fill="#5F7293"/>
<path d="M86.8528 91.8674L83.3039 94.0497C83.1883 94.1208 83.1115 94.2409 83.0956 94.3758V94.3758C83.0586 94.6895 83.3511 94.9395 83.6541 94.8504C84.6558 94.556 86.5548 93.9742 87.2164 93.6084C88.1317 93.1024 86.8528 91.8674 86.8528 91.8674Z" fill="url(#paint6_linear_263_3703)"/>
<path d="M90.7144 87.4503L90.2532 91.0768C90.2144 91.3818 90.4784 91.6391 90.7823 91.5924V91.5924C90.944 91.5676 91.0797 91.4616 91.1404 91.3096C91.5216 90.3548 92.8754 86.9492 92.467 87.7529C91.9933 88.6853 90.7144 87.4503 90.7144 87.4503Z" fill="url(#paint7_linear_263_3703)"/>
<path d="M81.7202 86.707C81.7202 86.707 82.1356 87.5054 82.5672 87.9221C83.0689 88.8037 83.9093 90.608 85.3082 93.0918V93.0918C86.1754 94.6315 87.6294 91.658 86.9893 90.0109L85.6267 86.5043L91.1342 88.3152C91.7161 88.5065 92.3469 88.2154 92.5787 87.6484V87.6484C92.8303 87.0333 92.523 86.3201 91.916 86.0494C90.9364 85.6125 89.2841 84.8254 86.8335 83.5042C86.4064 83.0918 85.8238 82.8755 85.8238 82.8755L81.7202 86.707Z" fill="#7A87AF"/>
<path d="M74.0424 80.4831L74.5959 81.893L71.9394 82.2027L67.3102 82.613L65.9362 83.3375L64.378 83.0636L64.4151 82.8943L65.8279 82.8227L66.1354 82.5042C66.1354 82.5042 65.698 82.0449 65.8202 81.9947C65.9425 81.9446 66.2515 82.1767 66.4429 82.1858C66.6343 82.1949 66.9931 81.8965 66.9931 81.8965L71.5834 81.1971L74.0424 80.4831Z" fill="#FFE9E9"/>
<path fill-rule="evenodd" clip-rule="evenodd" d="M86.3982 72.355C86.3982 72.355 86.9835 72.0052 87.1409 71.9746C87.2081 71.9616 87.1491 72.0652 87.0595 72.1884C87.2909 72.0339 87.4937 71.9066 87.5483 71.8959C87.6928 71.8678 87.8952 72.1372 87.8952 72.1372L88.0108 72.732L87.7795 73.0856L86.5158 73.8349L86.5208 73.849L83.7721 77.6878L81.3008 77.711L81.301 76.3984L83.2705 76.6464L86.1954 72.9165L86.2011 72.933C86.2099 72.8401 86.2182 72.7718 86.2182 72.7718C86.2182 72.7718 86.2711 72.734 86.3559 72.674C86.3663 72.5069 86.3982 72.355 86.3982 72.355Z" fill="#FFE9E9"/>
<path d="M79.5487 75.9332C79.5487 75.9332 81.5789 75.9623 81.7842 76.4031C81.876 76.6001 81.3713 77.5081 81.2868 77.7845C81.2867 77.9406 81.3843 77.9914 81.7833 78.3904C82.7766 79.3837 86.3003 83.1516 86.3003 83.1516C86.3003 83.1516 85.2078 84.762 84.4622 85.6606C83.7166 86.5592 82.1786 87.377 82.1786 87.377C82.1786 87.377 78.8958 83.7918 77.5199 82.8781C76.844 82.4292 76.073 82.2564 75.4635 82.1967C74.8188 82.1335 74.1932 81.7895 73.9285 81.1983V81.1983C73.749 80.7975 73.9597 80.3298 74.3695 80.1722C74.6579 80.0612 74.9676 79.9292 75.1861 79.8013C75.7156 79.4912 75.9554 79.0047 75.9554 79.0047L77.3966 77.5123C77.3966 77.5123 77.8092 77.1748 78.3063 76.6529C78.8033 76.1311 79.5487 75.9332 79.5487 75.9332Z" fill="#E5E9F0"/>
<path fill-rule="evenodd" clip-rule="evenodd" d="M76.1081 76.8474L75.2686 77.7168L76.5477 78.9521L76.5485 78.9513C76.5731 78.9564 77.4368 79.1375 77.6158 79.3104C77.7974 79.4858 77.3874 78.0818 77.3874 78.0818L77.3869 78.0824L76.1081 76.8474Z" fill="#FECECD"/>
<ellipse cx="75.1546" cy="76.8454" rx="1.27203" ry="1.85374" transform="rotate(-46 75.1546 76.8454)" fill="#FFE9E9"/>
<path fill-rule="evenodd" clip-rule="evenodd" d="M74.274 77.7561C74.0923 77.4333 73.5291 76.8895 73.6579 76.7194C73.7867 76.5493 74.1877 76.3474 74.2751 75.8429C74.3087 75.5808 74.3681 75.4909 74.311 75.4358C75.1827 74.8051 75.1528 75.6568 75.971 75.7136C76.0563 75.7195 76.1182 75.5612 76.1182 75.5612C76.1182 75.5612 75.0059 74.487 74.8331 74.4674C74.6602 74.4478 73.9663 74.3666 74.1042 74.7943C73.9617 74.6567 73.5203 74.8194 73.3351 75.2296C73.15 75.6398 72.9223 76.3035 73.1338 76.655C73.3452 77.0064 73.8418 77.6332 74.274 77.7561Z" fill="#515264"/>
<path fill-rule="evenodd" clip-rule="evenodd" d="M106.786 57.7285C106.797 57.6907 106.807 57.6526 106.816 57.6141C107.466 54.7993 101.281 50.9679 93.0024 49.0566C84.7235 47.1453 77.4853 47.8777 76.8354 50.6925C76.8329 50.7037 76.8304 50.7148 76.828 50.726L76.8138 50.7227L45.9995 110.641L99.9646 123.1L106.786 57.7285Z" fill="url(#paint8_linear_263_3703)"/>
<rect x="99.0933" y="22.6738" width="1.23077" height="11.0769" transform="rotate(13 99.0933 22.6738)" fill="url(#paint9_linear_263_3703)"/>
<ellipse cx="96.6702" cy="37.2727" rx="14.4615" ry="10.4615" transform="rotate(13 96.6702 37.2727)" fill="url(#paint10_linear_263_3703)"/>
<ellipse cx="94.3635" cy="45.898" rx="38.7692" ry="13.8462" transform="rotate(13 94.3635 45.898)" fill="#E7EAEE"/>
<ellipse cx="94.0862" cy="47.0972" rx="38.7692" ry="13.8462" transform="rotate(13 94.0862 47.0972)" fill="url(#paint11_linear_263_3703)"/>
<ellipse cx="91.8254" cy="54.1532" rx="15.3846" ry="5.23077" transform="rotate(13 91.8254 54.1532)" fill="white"/>
<circle cx="99.8318" cy="22.2141" r="1.84615" transform="rotate(13 99.8318 22.2141)" fill="#F57C77"/>
<ellipse cx="122.707" cy="48.9678" rx="2.46154" ry="2.46154" transform="rotate(13 122.707 48.9678)" fill="#F9FBFF"/>
<ellipse cx="86.9609" cy="36.9268" rx="2.46154" ry="2.46154" transform="rotate(13 86.9609 36.9268)" fill="#F9FBFF"/>
<ellipse cx="105.549" cy="41.2178" rx="2.46154" ry="2.46154" transform="rotate(13 105.549 41.2178)" fill="#F9FBFF"/>
<ellipse cx="68.1421" cy="36.3701" rx="2.46154" ry="2.46154" transform="rotate(13 68.1421 36.3701)" fill="#F9FBFF"/>
<ellipse opacity="0.328544" cx="81.3078" cy="108.002" rx="10.7692" ry="2.15385" fill="url(#paint12_linear_263_3703)"/>
<path d="M36.692 91.5C36.692 91.5 40.4957 98.188 41.4466 102.911C41.4466 106.684 39.0693 107.665 36.692 107.665C34.3148 107.665 31.9375 106.684 31.9375 102.911C32.8884 98.6318 36.692 91.5 36.692 91.5Z" fill="#E5E8EF"/>
<path d="M36.6919 104.923C36.6919 104.753 36.8297 104.615 36.9996 104.615V104.615C37.1695 104.615 37.3073 104.753 37.3073 104.923V113.846H36.6919V104.923Z" fill="#D0CFDB"/>
<g opacity="0.796852">
<path d="M121.308 89.5742C121.308 89.5742 124.399 94.9969 125.171 98.8263C125.171 101.886 123.24 102.681 121.308 102.681C119.377 102.681 117.445 101.886 117.445 98.8263C118.218 95.3568 121.308 89.5742 121.308 89.5742Z" fill="#E5E8EF"/>
<path d="M121.309 100.459C121.309 100.321 121.421 100.209 121.559 100.209V100.209C121.697 100.209 121.809 100.321 121.809 100.459V107.693H121.309V100.459Z" fill="#D0CFDB"/>
</g>
</g>
<defs>
<linearGradient id="paint0_linear_263_3703" x1="64.8975" y1="121.006" x2="64.8975" y2="125.678" gradientUnits="userSpaceOnUse">
<stop stop-color="#E3DDCD"/>
<stop offset="1" stop-color="#C9BEA2"/>
</linearGradient>
<linearGradient id="paint1_linear_263_3703" x1="65.2056" y1="120.999" x2="65.2056" y2="125.671" gradientUnits="userSpaceOnUse">
<stop stop-color="#E3DDCD"/>
<stop offset="1" stop-color="#C9BEA2"/>
</linearGradient>
<linearGradient id="paint2_linear_263_3703" x1="136" y1="133.999" x2="136" y2="136.999" gradientUnits="userSpaceOnUse">
<stop stop-color="#E3DDCD"/>
<stop offset="1" stop-color="#C9BEA2"/>
</linearGradient>
<linearGradient id="paint3_linear_263_3703" x1="86" y1="140.999" x2="86" y2="143.999" gradientUnits="userSpaceOnUse">
<stop stop-color="#E3DDCD"/>
<stop offset="1" stop-color="#C9BEA2"/>
</linearGradient>
<linearGradient id="paint4_linear_263_3703" x1="27" y1="134.999" x2="27" y2="140.999" gradientUnits="userSpaceOnUse">
<stop stop-color="#E3DDCD"/>
<stop offset="1" stop-color="#C9BEA2"/>
</linearGradient>
<linearGradient id="paint5_linear_263_3703" x1="107.823" y1="116.133" x2="107.823" y2="123.421" gradientUnits="userSpaceOnUse">
<stop stop-color="#E3DDCD"/>
<stop offset="1" stop-color="#C9BEA2"/>
</linearGradient>
<linearGradient id="paint6_linear_263_3703" x1="87.9434" y1="92.9206" x2="86.1265" y2="91.166" gradientUnits="userSpaceOnUse">
<stop stop-color="#7A87AF"/>
<stop offset="1" stop-color="#444F77"/>
</linearGradient>
<linearGradient id="paint7_linear_263_3703" x1="90.6318" y1="91.8219" x2="88.4901" y2="89.7537" gradientUnits="userSpaceOnUse">
<stop stop-color="#7A87AF"/>
<stop offset="1" stop-color="#444F77"/>
</linearGradient>
<linearGradient id="paint8_linear_263_3703" x1="97.3091" y1="116.094" x2="117.734" y2="50.8282" gradientUnits="userSpaceOnUse">
<stop stop-color="#F8FBFF" stop-opacity="0.2"/>
<stop offset="1" stop-color="#D9DDE2" stop-opacity="0.6"/>
</linearGradient>
<linearGradient id="paint9_linear_263_3703" x1="100.75" y1="22.7062" x2="99.1332" y2="22.6735" gradientUnits="userSpaceOnUse">
<stop stop-color="#F8FBFF"/>
<stop offset="1" stop-color="#D9DDE2"/>
</linearGradient>
<linearGradient id="paint10_linear_263_3703" x1="73.5631" y1="42.8187" x2="100.551" y2="51.3314" gradientUnits="userSpaceOnUse">
<stop stop-color="#F8FBFF"/>
<stop offset="1" stop-color="#D9DDE2"/>
</linearGradient>
<linearGradient id="paint11_linear_263_3703" x1="40.9088" y1="72.0281" x2="80.5082" y2="27.4061" gradientUnits="userSpaceOnUse">
<stop stop-color="#F8FBFF"/>
<stop offset="1" stop-color="#D9DDE2"/>
</linearGradient>
<linearGradient id="paint12_linear_263_3703" x1="73.2243" y1="108.257" x2="76.9457" y2="116.203" gradientUnits="userSpaceOnUse">
<stop stop-color="#C4CDD1"/>
<stop offset="1" stop-color="#C6CFD3" stop-opacity="0.01"/>
</linearGradient>
<clipPath id="clip0_263_3703">
<rect width="160" height="160" fill="white" transform="translate(0.5)"/>
</clipPath>
</defs>
</svg>
