<svg width="20" height="20" viewBox="0 0 20 20" fill="none" xmlns="http://www.w3.org/2000/svg">
<path d="M18.125 5.83333C18.125 6.175 17.8417 6.45833 17.5 6.45833H2.5C2.15833 6.45833 1.875 6.175 1.875 5.83333C1.875 5.49167 2.15833 5.20833 2.5 5.20833H17.5C17.8417 5.20833 18.125 5.49167 18.125 5.83333Z" fill="currentColor"/>
<path d="M15.625 10C15.625 10.3417 15.3417 10.625 15 10.625H5C4.65833 10.625 4.375 10.3417 4.375 10C4.375 9.65833 4.65833 9.375 5 9.375H15C15.3417 9.375 15.625 9.65833 15.625 10Z" fill="currentColor"/>
<path d="M7.70833 14.1667C7.70833 14.5083 7.99167 14.7917 8.33333 14.7917H11.6667C12.0083 14.7917 12.2917 14.5083 12.2917 14.1667C12.2917 13.825 12.0083 13.5417 11.6667 13.5417H8.33333C7.99167 13.5417 7.70833 13.825 7.70833 14.1667Z" fill="currentColor"/>
</svg>
