<svg width="20" height="20" viewBox="0 0 20 20" fill="none" xmlns="http://www.w3.org/2000/svg">
<path d="M7.50091 8.65091C8.59628 8.65091 9.48424 7.76294 9.48424 6.66758C9.48424 5.57221 8.59628 4.68424 7.50091 4.68424C6.40555 4.68424 5.51758 5.57221 5.51758 6.66758C5.51758 7.76294 6.40555 8.65091 7.50091 8.65091Z" fill="currentColor"/>
<path fill-rule="evenodd" clip-rule="evenodd" d="M1.66667 6.50833C1.66667 3.475 3.475 1.66667 6.50833 1.66667H13.4917C16.525 1.66667 18.3333 3.475 18.3333 6.50833V13.4917C18.3333 16.525 16.525 18.3333 13.4917 18.3333H6.50833C4.38333 18.3333 2.85 17.4417 2.13333 15.8583C1.825 15.1917 1.66667 14.4 1.66667 13.4917V6.50833ZM14.625 10.4167C15.275 9.85833 16.325 9.85833 16.975 10.4167L17.0833 10.5083V6.50833C17.0833 4.15833 15.8417 2.91667 13.4917 2.91667H6.50833C4.15833 2.91667 2.91667 4.15833 2.91667 6.50833V13.4917C2.91667 14.125 3.025 14.6667 3.20833 15.1333L6.325 13.0417C6.99167 12.5917 7.93333 12.6417 8.525 13.1583L8.80833 13.3917C9.45833 13.95 10.5083 13.95 11.1583 13.3917L14.625 10.4167Z" fill="currentColor"/>
</svg>
