<svg width="20" height="20" viewBox="0 0 20 20" fill="none" xmlns="http://www.w3.org/2000/svg">
<path d="M7.5 6C7.5 3.33333 9.16667 1.66667 11.8333 1.66667H14C16.6667 1.66667 18.3333 3.33333 18.325 6V14C18.325 16.6667 16.6583 18.3333 13.9917 18.3333H11.8333C9.16667 18.3333 7.5 16.6667 7.5 14V10.625H11.2L9.475 12.35C9.23333 12.5917 9.23333 12.9917 9.475 13.2333C9.71667 13.475 10.1167 13.475 10.3583 13.2333L13.15 10.4417C13.3917 10.2 13.3917 9.8 13.15 9.55833L10.3583 6.76667C10.1167 6.525 9.71667 6.525 9.475 6.76667C9.35 6.89167 9.29167 7.05 9.29167 7.20833C9.29167 7.36667 9.35 7.525 9.475 7.65L11.2 9.375H7.5V6Z" fill="currentColor"/>
<path d="M7.5 9.375H2.29167C1.95 9.375 1.66667 9.65833 1.66667 10C1.66667 10.3417 1.95 10.625 2.29167 10.625H7.5V9.375Z" fill="currentColor"/>
</svg>
