<svg width="16" height="16" viewBox="0 0 16 16" fill="none" xmlns="http://www.w3.org/2000/svg">
<path d="M12.5 5.66667C12.5 8.0599 10.4853 10 8 10C5.51472 10 3.5 8.0599 3.5 5.66667C3.5 3.27343 5.51472 1.33333 8 1.33333C10.4853 1.33333 12.5 3.27343 12.5 5.66667Z" fill="currentColor"/>
<path d="M11 10.7061C11 10.4594 10.7467 10.2927 10.5267 10.4061C9.76667 10.7861 8.90667 10.9994 8 10.9994C7.09333 10.9994 6.24 10.7861 5.48667 10.4061C5.27333 10.2994 5.01333 10.4594 5.01333 10.7061L5 13.9327C5 14.5327 5.42 14.8261 5.94 14.5861L7.72667 13.7394C7.88 13.6727 8.12 13.6727 8.27333 13.7394L10.06 14.5861C10.58 14.8327 11 14.5394 11 13.9394V10.7061Z" fill="currentColor"/>
</svg>
