<svg width="21" height="20" viewBox="0 0 21 20" fill="none" xmlns="http://www.w3.org/2000/svg">
<path fill-rule="evenodd" clip-rule="evenodd" d="M2.20801 15.925C2.20801 17.4083 2.95801 18.125 4.50801 18.125H7.53301C9.08301 18.125 9.83301 17.4083 9.83301 15.925V4.075C9.83301 2.59167 9.08301 1.875 7.53301 1.875H4.50801C2.95801 1.875 2.20801 2.59167 2.20801 4.075V15.925ZM3.45801 4.075C3.45801 3.35 3.60801 3.125 4.50801 3.125H7.53301C8.44134 3.125 8.58301 3.35 8.58301 4.075V15.925C8.58301 16.65 8.43301 16.875 7.53301 16.875H4.50801C3.59967 16.875 3.45801 16.65 3.45801 15.925V4.075Z" fill="currentColor"/>
<path fill-rule="evenodd" clip-rule="evenodd" d="M10.8327 15.925C10.8327 17.4083 11.5827 18.125 13.1327 18.125H16.1577C17.7077 18.125 18.4577 17.4083 18.4577 15.925V4.075C18.4577 2.59167 17.7077 1.875 16.1577 1.875H13.1327C11.5827 1.875 10.8327 2.59167 10.8327 4.075V15.925ZM12.0827 4.075C12.0827 3.35 12.2327 3.125 13.1327 3.125H16.1577C17.066 3.125 17.2077 3.35 17.2077 4.075V15.925C17.2077 16.65 17.0577 16.875 16.1577 16.875H13.1327C12.2243 16.875 12.0827 16.65 12.0827 15.925V4.075Z" fill="currentColor"/>
</svg>
