<svg width="20" height="20" viewBox="0 0 20 20" fill="none" xmlns="http://www.w3.org/2000/svg">
    <path d="M10 11.1779L12.4558 13.6338L4.375 18.2988C4.17562 18.4153 3.94766 18.4739 3.7168 18.4678C3.48594 18.4618 3.26135 18.3914 3.06833 18.2646L2.97833 18.1996L10 11.1779ZM2.5 3.67794L8.82167 9.9996L2.5 16.3213V3.67794ZM13.95 7.22794L16.875 8.9171C17.7083 9.39794 17.7083 10.6004 16.875 11.0821L13.95 12.7713L11.1783 9.9996L13.95 7.22794ZM4.375 1.70044L12.4558 6.36544L10 8.82127L2.97833 1.79877C3.17433 1.64401 3.41239 1.55186 3.66151 1.53432C3.91063 1.51678 4.15925 1.57467 4.375 1.70044Z" fill="currentColor"/>
</svg>
