<svg width="80" height="80" viewBox="0 0 80 80" fill="none" xmlns="http://www.w3.org/2000/svg">
<rect width="80" height="80" rx="16" fill="#F3FFFB"/>
<g filter="url(#filter0_ii_337_3536)">
<path d="M39.5 40C42.1256 40 44.6437 38.9464 46.5004 37.0711C48.357 35.1957 49.4 32.6522 49.4 30C49.4 27.3478 48.357 24.8043 46.5004 22.9289C44.6437 21.0536 42.1256 20 39.5 20C36.8744 20 34.3563 21.0536 32.4996 22.9289C30.643 24.8043 29.6 27.3478 29.6 30C29.6 32.6522 30.643 35.1957 32.4996 37.0711C34.3563 38.9464 36.8744 40 39.5 40ZM39.5 42.2222C43.8846 42.2222 47.871 43.5733 50.8014 45.48C52.2688 46.4356 53.525 47.5622 54.438 48.7911C55.3334 50.0022 56 51.4578 56 53.0156C56 54.6933 55.23 56.0378 54.0992 57.0089C53.0322 57.92 51.6418 58.5111 50.2052 58.9178C47.3166 59.7333 43.4952 60 39.5 60C35.5048 60 31.6834 59.7333 28.797 58.9178C27.3582 58.5111 25.9678 57.92 24.903 57.0089C23.7678 56.04 23 54.6933 23 53.0156C23 51.4556 23.6666 50.0022 24.562 48.7933C25.475 47.5622 26.7312 46.4333 28.1986 45.4822C31.129 43.5711 35.1154 42.2222 39.5 42.2222Z" fill="url(#paint0_linear_337_3536)"/>
</g>
<defs>
<filter id="filter0_ii_337_3536" x="23" y="19" width="33" height="42" filterUnits="userSpaceOnUse" color-interpolation-filters="sRGB">
<feFlood flood-opacity="0" result="BackgroundImageFix"/>
<feBlend mode="normal" in="SourceGraphic" in2="BackgroundImageFix" result="shape"/>
<feColorMatrix in="SourceAlpha" type="matrix" values="0 0 0 0 0 0 0 0 0 0 0 0 0 0 0 0 0 0 127 0" result="hardAlpha"/>
<feOffset dy="-1"/>
<feGaussianBlur stdDeviation="0.5"/>
<feComposite in2="hardAlpha" operator="arithmetic" k2="-1" k3="1"/>
<feColorMatrix type="matrix" values="0 0 0 0 0.14769 0 0 0 0 0.923045 0 0 0 0 0.703361 0 0 0 1 0"/>
<feBlend mode="normal" in2="shape" result="effect1_innerShadow_337_3536"/>
<feColorMatrix in="SourceAlpha" type="matrix" values="0 0 0 0 0 0 0 0 0 0 0 0 0 0 0 0 0 0 127 0" result="hardAlpha"/>
<feOffset dy="1"/>
<feGaussianBlur stdDeviation="1"/>
<feComposite in2="hardAlpha" operator="arithmetic" k2="-1" k3="1"/>
<feColorMatrix type="matrix" values="0 0 0 0 0.629431 0 0 0 0 0.976233 0 0 0 0 0.877973 0 0 0 0.6 0"/>
<feBlend mode="normal" in2="effect1_innerShadow_337_3536" result="effect2_innerShadow_337_3536"/>
</filter>
<linearGradient id="paint0_linear_337_3536" x1="40" y1="13" x2="39.5" y2="60" gradientUnits="userSpaceOnUse">
<stop stop-color="#8CF9DA"/>
<stop offset="1" stop-color="#08CF96"/>
</linearGradient>
</defs>
</svg>
