<svg width="32" height="32" viewBox="0 0 32 32" fill="none" xmlns="http://www.w3.org/2000/svg">
<path fill-rule="evenodd" clip-rule="evenodd" d="M29.3337 16.0001C29.3337 23.3639 23.3641 29.3334 16.0003 29.3334C8.63653 29.3334 2.66699 23.3639 2.66699 16.0001C2.66699 8.63628 8.63653 2.66675 16.0003 2.66675C23.3641 2.66675 29.3337 8.63628 29.3337 16.0001ZM21.3741 11.9596C21.7646 12.3502 21.7646 12.9833 21.3741 13.3739L14.7074 20.0405C14.3169 20.431 13.6837 20.431 13.2932 20.0405L10.6266 17.3739C10.236 16.9833 10.236 16.3502 10.6266 15.9596C11.0171 15.5691 11.6502 15.5691 12.0408 15.9596L14.0003 17.9192L16.9801 14.9394L19.9599 11.9596C20.3504 11.5691 20.9836 11.5691 21.3741 11.9596Z" fill="#00C21F"/>
<path d="M21.3734 11.9594C21.764 12.3499 21.764 12.9831 21.3734 13.3736L14.7068 20.0403C14.3163 20.4308 13.6831 20.4308 13.2926 20.0403L10.6259 17.3736C10.2354 16.9831 10.2354 16.3499 10.6259 15.9594C11.0164 15.5689 11.6496 15.5689 12.0401 15.9594L13.9997 17.919L16.9795 14.9392L19.9592 11.9594C20.3498 11.5689 20.9829 11.5689 21.3734 11.9594Z" fill="white"/>
</svg>
