<svg width="21" height="20" viewBox="0 0 21 20" fill="none" xmlns="http://www.w3.org/2000/svg">
<path fill-rule="evenodd" clip-rule="evenodd" d="M2.16667 6.50833C2.16667 3.475 3.975 1.66667 7.00833 1.66667H13.9917C17.025 1.66667 18.8333 3.475 18.8333 6.50833V13.4917C18.8333 16.525 17.025 18.3333 13.9917 18.3333H7.00833C3.975 18.3333 2.16667 16.525 2.16667 13.4917V6.50833ZM6.93333 14.2917L8.80833 12.4167C9.05 12.175 9.05 11.775 8.80833 11.5333C8.55833 11.2917 8.16667 11.2917 7.925 11.5333L6.49167 12.9667L6.30833 12.7833C6.05833 12.5417 5.66667 12.5417 5.425 12.7833C5.175 13.025 5.175 13.425 5.425 13.6667L6.05 14.2917C6.16667 14.4167 6.33333 14.475 6.49167 14.475C6.65 14.475 6.80833 14.4167 6.93333 14.2917ZM6.93333 8.45833L8.80833 6.58333C9.05 6.34167 9.05 5.94167 8.80833 5.7C8.55833 5.45833 8.16667 5.45833 7.925 5.7L6.49167 7.13333L6.30833 6.95C6.05833 6.70833 5.66667 6.70833 5.425 6.95C5.175 7.19167 5.175 7.59167 5.425 7.83333L6.05 8.45833C6.16667 8.58333 6.33333 8.64167 6.49167 8.64167C6.65 8.64167 6.80833 8.58333 6.93333 8.45833ZM10.1333 13.225C10.1333 13.5667 10.4167 13.85 10.7583 13.85H15.1333C15.4833 13.85 15.7583 13.5667 15.7583 13.225C15.7583 12.8833 15.4833 12.6 15.1333 12.6H10.7583C10.4167 12.6 10.1333 12.8833 10.1333 13.225ZM10.1333 7.39167C10.1333 7.73333 10.4167 8.01667 10.7583 8.01667H15.1333C15.4833 8.01667 15.7583 7.73333 15.7583 7.39167C15.7583 7.05 15.4833 6.76667 15.1333 6.76667H10.7583C10.4167 6.76667 10.1333 7.05 10.1333 7.39167Z" fill="currentColor"/>
</svg>
