<svg width="24" height="24" viewBox="0 0 24 24" fill="none" xmlns="http://www.w3.org/2000/svg">
<path fill-rule="evenodd" clip-rule="evenodd" d="M2 7.81C2 4.17 4.17 2 7.81 2L16.19 2C19.83 2 22 4.17 21.99 7.81L21.99 16.19C21.99 19.83 19.82 22 16.18 22L7.81 22C4.17 22 2 19.83 2 16.18L2 7.81ZM11.11 15.37L16.78 9.7C17.07 9.4 17.07 8.93 16.78 8.64C16.49 8.35 16.01 8.35 15.72 8.64L10.58 13.78L8.28 11.48C7.99 11.19 7.51 11.19 7.22 11.48C6.93 11.77 6.93 12.25 7.22 12.54L10.05 15.37C10.19 15.51 10.38 15.59 10.58 15.59C10.78 15.59 10.97 15.51 11.11 15.37Z" fill="currentColor" fill-opacity="0.2"/>
</svg>
