<svg width="20" height="20" viewBox="0 0 20 20" fill="none" xmlns="http://www.w3.org/2000/svg">
<path fill-rule="evenodd" clip-rule="evenodd" d="M7.70833 7.91667C7.70833 8.95 8.55 9.79167 9.58333 9.79167C10.6167 9.79167 11.4583 8.95 11.4583 7.91667C11.4583 6.88333 10.6167 6.04167 9.58333 6.04167C8.55 6.04167 7.70833 6.88333 7.70833 7.91667ZM8.95833 7.91667C8.95833 7.575 9.24167 7.29167 9.58333 7.29167C9.925 7.29167 10.2083 7.575 10.2083 7.91667C10.2083 8.25833 9.925 8.54167 9.58333 8.54167C9.24167 8.54167 8.95833 8.25833 8.95833 7.91667Z" fill="currentColor"/>
<path fill-rule="evenodd" clip-rule="evenodd" d="M14.7353 13.7402C14.6408 16.3537 13.4916 17.3832 10.7333 17.3832H5.675C2.71667 17.3832 1.66667 15.3082 1.66667 13.3749V6.62491C1.66667 3.74158 2.79167 2.61658 5.675 2.61658H10.7333C13.4917 2.61658 14.6408 3.64614 14.7353 6.25975L15.9747 5.39166C16.9664 4.7 17.6914 4.9 18.0331 5.075C18.3747 5.25833 18.9581 5.73333 18.9581 6.94166V13.05C18.9581 14.2583 18.3747 14.7417 18.0331 14.9167C17.8747 15.0083 17.6247 15.0917 17.3164 15.0917C16.9581 15.0917 16.4997 14.975 15.9747 14.6083L14.7353 13.7402ZM16.6997 6.43333L14.7417 7.79981V12.2002L16.6997 13.5667C17.0747 13.825 17.3414 13.85 17.4497 13.7917C17.5664 13.7333 17.6914 13.5 17.6914 13.05V6.95C17.6914 6.49166 17.5581 6.26666 17.4497 6.20833C17.3414 6.15 17.0747 6.175 16.6997 6.43333ZM5.675 3.88324C3.5 3.88324 2.93333 4.44991 2.93333 6.62491V13.3749C2.93333 14.3999 3.29167 16.1166 5.675 16.1166H10.7333C12.9083 16.1166 13.475 15.5499 13.475 13.3749V6.62491C13.475 4.44991 12.9083 3.88324 10.7333 3.88324H5.675Z" fill="currentColor"/>
</svg>
